<svg width="29" height="28" viewBox="0 0 29 28" fill="none" xmlns="http://www.w3.org/2000/svg">
<rect x="1" y="1" width="27" height="26" rx="4" stroke="#D9D9D9" stroke-width="2"/>
<path d="M9.7 25.8V10.42C9.7 9.27333 9.9 8.36 10.3 7.68C10.7133 6.98667 11.2667 6.48667 11.96 6.18C12.6533 5.86 13.4267 5.7 14.28 5.7C15.1867 5.7 15.9533 5.84667 16.58 6.14C17.22 6.43333 17.7 6.86667 18.02 7.44C18.3533 8 18.52 8.69333 18.52 9.52C18.52 10.16 18.3867 10.7133 18.12 11.18C17.8667 11.6333 17.5267 12.0067 17.1 12.3C16.6733 12.58 16.2 12.7733 15.68 12.88V12.96C16.36 13.0533 16.96 13.26 17.48 13.58C18 13.9 18.4067 14.34 18.7 14.9C19.0067 15.4467 19.16 16.1267 19.16 16.94C19.16 17.8467 18.9533 18.62 18.54 19.26C18.14 19.9 17.5867 20.3867 16.88 20.72C16.1867 21.04 15.4 21.2 14.52 21.2C14.04 21.2 13.62 21.1733 13.26 21.12C12.9133 21.0667 12.6 20.9867 12.32 20.88C12.04 20.7733 11.7533 20.6533 11.46 20.52V25.8H9.7ZM14.36 19.76C15.2933 19.76 16.0333 19.5067 16.58 19C17.1267 18.48 17.4 17.7533 17.4 16.82C17.4 16.1133 17.26 15.5333 16.98 15.08C16.7133 14.6133 16.3533 14.2667 15.9 14.04C15.46 13.8 14.9867 13.68 14.48 13.68H12.82V12.32H14.28C14.7867 12.32 15.22 12.2067 15.58 11.98C15.9533 11.7533 16.2333 11.4333 16.42 11.02C16.62 10.6067 16.72 10.1333 16.72 9.6C16.72 8.77333 16.4733 8.16 15.98 7.76C15.5 7.36 14.92 7.16 14.24 7.16C13.7733 7.16 13.3267 7.25333 12.9 7.44C12.4733 7.61333 12.1267 7.94 11.86 8.42C11.5933 8.9 11.46 9.59333 11.46 10.5V18.94C11.9267 19.18 12.3733 19.38 12.8 19.54C13.2267 19.6867 13.7467 19.76 14.36 19.76Z" fill="black"/>
</svg>
