<svg width="35" height="35" viewBox="0 0 35 35" fill="none" xmlns="http://www.w3.org/2000/svg">
<path d="M26.0388 13.6035L28.942 8.57432C29.0198 8.43932 29.0411 8.27901 29.0011 8.12839C28.9612 7.97777 28.8632 7.84908 28.7287 7.77041C28.6623 7.73141 28.5887 7.70598 28.5124 7.69559C28.436 7.68521 28.3584 7.69007 28.2839 7.70991C28.2095 7.72975 28.1397 7.76416 28.0786 7.81116C28.0176 7.85815 27.9665 7.9168 27.9282 7.98369L24.9888 13.0778C22.7445 12.0524 20.2187 11.4816 17.5021 11.4816C14.7854 11.4816 12.2596 12.0531 10.0153 13.0778L7.07588 7.98369C6.99756 7.84881 6.86886 7.75056 6.7181 7.71056C6.56734 7.67056 6.40686 7.69209 6.27197 7.77041C6.13709 7.84873 6.03884 7.97743 5.99884 8.12819C5.95884 8.27896 5.98037 8.43943 6.05869 8.57432L8.95508 13.6035C3.95117 16.3133 0.559863 21.3808 0 27.313H35C34.4401 21.3808 31.0488 16.3133 26.0388 13.6035ZM9.46436 22.398C9.17421 22.398 8.89058 22.3119 8.64934 22.1507C8.40809 21.9895 8.22006 21.7604 8.10903 21.4924C7.998 21.2243 7.96895 20.9293 8.02555 20.6448C8.08216 20.3602 8.22187 20.0988 8.42704 19.8936C8.6322 19.6885 8.89359 19.5488 9.17816 19.4922C9.46273 19.4356 9.75769 19.4646 10.0257 19.5756C10.2938 19.6867 10.5229 19.8747 10.6841 20.1159C10.8453 20.3572 10.9313 20.6408 10.9313 20.931C10.9312 21.32 10.7766 21.693 10.5015 21.9681C10.2264 22.2432 9.85337 22.3978 9.46436 22.398ZM25.5288 22.398C25.2389 22.3967 24.9559 22.3097 24.7155 22.1477C24.475 21.9858 24.288 21.7563 24.1779 21.4881C24.0678 21.2199 24.0396 20.9252 24.0969 20.641C24.1542 20.3568 24.2944 20.096 24.4998 19.8915C24.7052 19.6869 24.9666 19.5478 25.251 19.4917C25.5354 19.4356 25.8301 19.465 26.0978 19.5762C26.3655 19.6874 26.5942 19.8755 26.7551 20.1166C26.9161 20.3577 27.002 20.6411 27.002 20.931C27.0019 21.1239 26.9637 21.3149 26.8898 21.493C26.8158 21.6712 26.7074 21.833 26.5709 21.9693C26.4343 22.1055 26.2722 22.2135 26.0939 22.2871C25.9155 22.3606 25.7245 22.3983 25.5315 22.398H25.5288Z" fill="#111111"/>
</svg>
