<svg width="298" height="45" viewBox="0 0 298 45" fill="none" xmlns="http://www.w3.org/2000/svg">
<path d="M5.80616 6.08922C2.84617 9.04001 0.756128 13.6116 0.168152 18.1767C2.66391 17.8258 6.2668 17.5375 9.5743 17.6146C11.4068 17.6573 13.201 17.8131 14.6849 18.1534C15.3915 18.3154 16.0618 18.5268 16.6458 18.8073C17.3971 16.2797 18.9503 14.5965 21.031 13.4787C20.2521 12.7988 18.9437 11.9529 17.2844 11.0379C13.8365 9.13676 9.24363 7.13576 5.93522 5.9613C5.89221 6.00369 5.84919 6.04632 5.80616 6.08922Z" fill="white"/>
<path fill-rule="evenodd" clip-rule="evenodd" d="M8.01297 4.11708C11.2751 5.3532 15.3186 7.15773 18.4723 8.89669C20.3192 9.91503 21.9649 10.9666 22.9521 11.9159C23.1236 12.0808 23.3041 12.2692 23.4698 12.4785C26.7467 11.4689 30.8064 11.3086 34.9712 11.3086C42.7307 11.3086 42.8582 7.97465 40.2068 6.08922C36.2466 3.27301 28.9973 0 22.5534 0C15.8405 0 11.7384 1.18515 8.01297 4.11708ZM37.7025 7.56642C37.2644 7.92992 35.4108 6.85219 34.2863 6.11285C32.1082 4.68087 32.7148 4.00987 34.1976 3.80852C35.5793 3.6209 37.0959 4.88253 37.7025 5.48648C38.174 5.95588 38.3428 7.03518 37.7025 7.56642Z" fill="white"/>
<path d="M0 20.7435C0 20.7206 4.1761e-05 20.6978 0.0001252 20.6749C2.36646 20.3093 6.11971 19.9817 9.51691 20.0609C11.2726 20.1018 12.8809 20.2505 14.1347 20.538C14.761 20.6816 15.2613 20.8516 15.6335 21.0377C15.9182 21.1801 16.0882 21.3119 16.1861 21.4146C16.1576 21.8006 16.1432 22.2013 16.1432 22.6171C16.1432 24.7015 16.459 26.3296 17.0337 27.6007C14.7423 28.4503 11.0535 29.5317 7.63719 30.1712C5.76719 30.5212 4.03698 30.7274 2.68853 30.708C2.2662 30.7019 1.90122 30.6737 1.59365 30.6274C0.586409 27.8244 0 24.4179 0 20.7435Z" fill="white"/>
<path d="M18.4817 29.6679C16.1116 30.6019 11.9383 31.8558 8.0901 32.5761C6.17212 32.9351 4.27798 33.1726 2.7021 33.1553C2.86908 33.4694 3.04248 33.771 3.22192 34.0595C5.03048 36.9667 7.72226 40.9214 13.2667 43.1933C13.54 43.0786 13.8627 42.9009 14.2418 42.6371C15.328 41.8812 16.5473 40.6376 17.7838 39.1323C19.7476 36.7416 21.6211 33.8569 22.91 31.6936C21.1465 31.3629 19.6297 30.7586 18.4817 29.6679Z" fill="white"/>
<path d="M23.5603 45C20.7668 45 18.3595 44.6951 16.2746 44.1736C17.4311 43.2498 18.5928 42.0097 19.6828 40.6826C22.0516 37.7988 24.2617 34.2809 25.5712 32.0022C27.1611 32.0985 28.874 32.0822 30.6455 32.0653H30.6466C31.342 32.0587 32.0465 32.052 32.7562 32.052C33.3327 32.052 33.908 32.0229 34.4797 31.9683C34.5089 33.6917 34.4453 36.2421 34.0954 38.546C33.894 39.8725 33.6072 41.0499 33.225 41.925C33.0429 42.342 32.8632 42.6365 32.6981 42.8414C29.9149 44.1763 26.8547 45 23.5603 45Z" fill="white"/>
<path d="M36.9267 31.583C36.9718 33.3868 36.9232 36.2715 36.5222 38.9122C36.4227 39.5675 36.2995 40.2222 36.1459 40.851C42.5383 36.52 47.0523 29.799 49 25.6952C46.9929 27.3848 42.2798 30.4218 36.9267 31.583Z" fill="white"/>
<path d="M70.6 12.7H75.4V28.7H88.2V33.5H70.6V12.7ZM91.4125 15.9H93.0125V14.3H94.6125V12.7H105.812V14.3H107.413V15.9H109.013V33.5H104.213V28.7H96.2125V33.5H91.4125V15.9ZM96.2125 23.9H104.213V17.5H96.2125V23.9ZM112.225 12.7H126.625V14.3H128.225V15.9H129.825V23.9H128.225V25.5H125.025V27.1H126.625V28.7H128.225V30.3H129.825V33.5H125.025V31.9H123.425V30.3H121.825V28.7H120.225V27.1H117.025V33.5H112.225V12.7ZM117.025 22.3H125.025V17.5H117.025V22.3ZM133.038 12.7H137.838V23.9H139.438V25.5H141.038V27.1H142.638V25.5H144.238V23.9H145.838V12.7H150.638V25.5H149.038V27.1H147.438V28.7H145.838V30.3H144.238V31.9H142.638V33.5H141.038V31.9H139.438V30.3H137.838V28.7H136.238V27.1H134.638V25.5H133.038V12.7ZM153.85 15.9H155.45V14.3H157.05V12.7H168.25V14.3H169.85V15.9H171.45V33.5H166.65V28.7H158.65V33.5H153.85V15.9ZM158.65 23.9H166.65V17.5H158.65V23.9ZM195.475 15.9H197.075V14.3H198.675V12.7H211.475V17.5H200.275V28.7H208.275V25.5H203.475V20.7H213.075V30.3H211.475V31.9H209.875V33.5H198.675V31.9H197.075V30.3H195.475V15.9ZM216.288 15.9H217.888V14.3H219.488V12.7H230.688V14.3H232.288V15.9H233.888V33.5H229.088V28.7H221.088V33.5H216.288V15.9ZM221.088 23.9H229.088V17.5H221.088V23.9ZM237.1 12.7H241.9V17.5H243.5V19.1H245.1V20.7H246.7V19.1H248.3V17.5H249.9V12.7H254.7V33.5H249.9V23.9H248.3V25.5H246.7V27.1H245.1V25.5H243.5V23.9H241.9V33.5H237.1V12.7ZM257.913 12.7H275.513V17.5H262.713V20.7H273.913V25.5H262.713V28.7H275.513V33.5H257.913V12.7ZM278.725 15.9H280.325V14.3H281.925V12.7H294.725V17.5H283.525V20.7H293.125V22.3H294.725V23.9H296.325V30.3H294.725V31.9H293.125V33.5H278.725V28.7H291.525V25.5H281.925V23.9H280.325V22.3H278.725V15.9Z" fill="white"/>
</svg>
