<svg width="45" height="45" viewBox="0 0 45 45" fill="none" xmlns="http://www.w3.org/2000/svg">
<rect x="-1" y="1" width="43" height="43" rx="9" transform="matrix(-1 0 0 1 43 0)" stroke="#DBDBDB" stroke-width="2"/>
<path d="M17.04 36.76V18.304C17.04 16.928 17.28 15.832 17.76 15.016C18.256 14.184 18.92 13.584 19.752 13.216C20.584 12.832 21.512 12.64 22.536 12.64C23.624 12.64 24.544 12.816 25.296 13.168C26.064 13.52 26.64 14.04 27.024 14.728C27.424 15.4 27.624 16.232 27.624 17.224C27.624 17.992 27.464 18.656 27.144 19.216C26.84 19.76 26.432 20.208 25.92 20.56C25.408 20.896 24.84 21.128 24.216 21.256V21.352C25.032 21.464 25.752 21.712 26.376 22.096C27 22.48 27.488 23.008 27.84 23.68C28.208 24.336 28.392 25.152 28.392 26.128C28.392 27.216 28.144 28.144 27.648 28.912C27.168 29.68 26.504 30.264 25.656 30.664C24.824 31.048 23.88 31.24 22.824 31.24C22.248 31.24 21.744 31.208 21.312 31.144C20.896 31.08 20.52 30.984 20.184 30.856C19.848 30.728 19.504 30.584 19.152 30.424V36.76H17.04ZM22.632 29.512C23.752 29.512 24.64 29.208 25.296 28.6C25.952 27.976 26.28 27.104 26.28 25.984C26.28 25.136 26.112 24.44 25.776 23.896C25.456 23.336 25.024 22.92 24.48 22.648C23.952 22.36 23.384 22.216 22.776 22.216H20.784V20.584H22.536C23.144 20.584 23.664 20.448 24.096 20.176C24.544 19.904 24.88 19.52 25.104 19.024C25.344 18.528 25.464 17.96 25.464 17.32C25.464 16.328 25.168 15.592 24.576 15.112C24 14.632 23.304 14.392 22.488 14.392C21.928 14.392 21.392 14.504 20.88 14.728C20.368 14.936 19.952 15.328 19.632 15.904C19.312 16.48 19.152 17.312 19.152 18.4V28.528C19.712 28.816 20.248 29.056 20.76 29.248C21.272 29.424 21.896 29.512 22.632 29.512Z" fill="black"/>
</svg>
