<svg width="61" height="47" viewBox="0 0 61 47" fill="none" xmlns="http://www.w3.org/2000/svg">
<path d="M51.4829 3.93624C47.5488 2.09737 43.3422 0.760964 38.9444 0C38.4043 0.975529 37.7733 2.28764 37.3382 3.33141C32.6632 2.62904 28.0312 2.62904 23.4422 3.33141C23.0072 2.28764 22.3619 0.975529 21.8169 0C17.4143 0.760964 13.2029 2.10228 9.26881 3.94598C1.33363 15.9252 -0.817464 27.6069 0.258086 39.1228C5.52111 43.0492 10.6216 45.4344 15.636 46.9952C16.8741 45.2929 17.9783 43.4833 18.9296 41.5762C17.1179 40.8885 15.3827 40.0398 13.7431 39.0545C14.1781 38.7326 14.6036 38.396 15.0146 38.0497C25.0148 42.7224 35.8803 42.7224 45.761 38.0497C46.1769 38.396 46.6023 38.7326 47.0325 39.0545C45.3881 40.0446 43.6482 40.8933 41.8365 41.5811C42.7877 43.4833 43.8872 45.2978 45.13 47C50.1493 45.4392 55.2545 43.0541 60.5176 39.1228C61.7796 25.773 58.3617 14.1986 51.4829 3.93624ZM20.292 32.0406C17.29 32.0406 14.8282 29.2409 14.8282 25.8315C14.8282 22.4221 17.2375 19.6175 20.292 19.6175C23.3466 19.6175 25.8084 22.4172 25.7558 25.8315C25.7605 29.2409 23.3466 32.0406 20.292 32.0406ZM40.4837 32.0406C37.4817 32.0406 35.0199 29.2409 35.0199 25.8315C35.0199 22.4221 37.4291 19.6175 40.4837 19.6175C43.5382 19.6175 46 22.4172 45.9475 25.8315C45.9475 29.2409 43.5382 32.0406 40.4837 32.0406Z" fill="white"/>
</svg>
