<svg width="68" height="47" viewBox="0 0 68 47" fill="none" xmlns="http://www.w3.org/2000/svg">
<path fill-rule="evenodd" clip-rule="evenodd" d="M60.0255 1.40318C62.9058 2.17527 65.1738 4.45022 65.9436 7.3392C67.3425 12.5753 67.3425 23.5 67.3425 23.5C67.3425 23.5 67.3425 34.4246 65.9436 39.6611C65.1738 42.5498 62.9058 44.8247 60.0255 45.5971C54.8054 47 33.8728 47 33.8728 47C33.8728 47 12.9403 47 7.71997 45.5971C4.83994 44.8247 2.57159 42.5498 1.80185 39.6611C0.403076 34.4246 0.403076 23.5 0.403076 23.5C0.403076 23.5 0.403076 12.5753 1.80185 7.3392C2.57159 4.45022 4.83994 2.17527 7.71997 1.40318C12.9403 0 33.8728 0 33.8728 0C33.8728 0 54.8054 0 60.0255 1.40318ZM44.5224 23.5005L27.0269 33.4188V13.5812L44.5224 23.5005Z" fill="white"/>
</svg>
